<mxfile host="65bd71144e">
    <diagram id="lTxxsAHfRWxMnPCZ8uMw" name="Page-1">
        <mxGraphModel dx="3393" dy="1940" grid="1" gridSize="10" guides="1" tooltips="1" connect="1" arrows="1" fold="1" page="1" pageScale="1" pageWidth="2000" pageHeight="2300" math="0" shadow="0">
            <root>
                <mxCell id="0"/>
                <mxCell id="1" parent="0"/>
                <mxCell id="29" value="&lt;font style=&quot;font-size: 80px;&quot;&gt;RGU&amp;nbsp; &amp;nbsp;&lt;br&gt;Testbench&amp;nbsp; &amp;nbsp;&lt;br&gt;Architecture&amp;nbsp;&amp;nbsp;&lt;br&gt;&amp;nbsp; &amp;nbsp;&lt;br&gt;&lt;br&gt;&lt;br&gt;&lt;br&gt;&lt;br&gt;&lt;br&gt;&lt;br&gt;&lt;br&gt;&lt;br&gt;&lt;br&gt;&lt;br&gt;&lt;br&gt;&lt;br&gt;&lt;br&gt;&lt;br&gt;&lt;br&gt;&lt;br&gt;&lt;/font&gt;" style="rounded=0;whiteSpace=wrap;html=1;shadow=1;labelBackgroundColor=#808080;fillStyle=auto;strokeColor=#000000;fontSize=20;fontColor=#000000;fillColor=#808080;align=right;" vertex="1" parent="1">
                    <mxGeometry x="60" y="30" width="1880" height="2250" as="geometry"/>
                </mxCell>
                <mxCell id="2" value="DUT" style="rounded=0;whiteSpace=wrap;html=1;fillColor=#a20025;fontColor=#ffffff;strokeColor=#6F0000;fontSize=22;fontStyle=1" parent="1" vertex="1">
                    <mxGeometry x="1740" y="1185" width="120" height="180" as="geometry"/>
                </mxCell>
                <mxCell id="3" value="I&lt;br style=&quot;font-size: 22px;&quot;&gt;N&lt;br style=&quot;font-size: 22px;&quot;&gt;T&lt;br style=&quot;font-size: 22px;&quot;&gt;F" style="rounded=1;whiteSpace=wrap;html=1;fillColor=#a20025;fontColor=#ffffff;strokeColor=#6F0000;fontSize=22;fontStyle=1" parent="1" vertex="1">
                    <mxGeometry x="1350" y="740" width="100" height="1000" as="geometry"/>
                </mxCell>
                <mxCell id="4" value="" style="endArrow=classic;startArrow=classic;html=1;exitX=1.037;exitY=0.315;exitDx=0;exitDy=0;exitPerimeter=0;entryX=0.012;entryY=0.222;entryDx=0;entryDy=0;entryPerimeter=0;" edge="1" parent="1" source="3" target="2">
                    <mxGeometry width="50" height="50" relative="1" as="geometry">
                        <mxPoint x="1660" y="690" as="sourcePoint"/>
                        <mxPoint x="1710" y="640" as="targetPoint"/>
                        <Array as="points">
                            <mxPoint x="1570" y="1160"/>
                        </Array>
                    </mxGeometry>
                </mxCell>
                <mxCell id="5" value="" style="endArrow=classic;startArrow=classic;html=1;exitX=1;exitY=0.75;exitDx=0;exitDy=0;entryX=0;entryY=0.75;entryDx=0;entryDy=0;" edge="1" parent="1" source="3" target="2">
                    <mxGeometry width="50" height="50" relative="1" as="geometry">
                        <mxPoint x="1631.85" y="690" as="sourcePoint"/>
                        <mxPoint x="1710" y="719.75" as="targetPoint"/>
                        <Array as="points">
                            <mxPoint x="1580" y="1370"/>
                        </Array>
                    </mxGeometry>
                </mxCell>
                <mxCell id="6" value="" style="endArrow=classic;startArrow=classic;html=1;exitX=1.015;exitY=0.537;exitDx=0;exitDy=0;exitPerimeter=0;entryX=0;entryY=0.489;entryDx=0;entryDy=0;entryPerimeter=0;" edge="1" parent="1" source="3" target="2">
                    <mxGeometry width="50" height="50" relative="1" as="geometry">
                        <mxPoint x="1641.8500000000004" y="620.25" as="sourcePoint"/>
                        <mxPoint x="1720" y="650" as="targetPoint"/>
                    </mxGeometry>
                </mxCell>
                <mxCell id="7" value="" style="group;labelBackgroundColor=#ffcccc;fillColor=#ffff88;strokeColor=#36393d;fontColor=#000000;shadow=1;" vertex="1" connectable="0" parent="1">
                    <mxGeometry x="849" y="300" width="469" height="1759" as="geometry"/>
                </mxCell>
                <mxCell id="28" value="&lt;font style=&quot;font-size: 27px;&quot;&gt;SPI UVM Testbench Environment&lt;br&gt;&lt;br&gt;&lt;br&gt;&lt;br&gt;&lt;br&gt;&lt;br&gt;&lt;br&gt;&lt;br&gt;&lt;br&gt;&lt;br&gt;&lt;br&gt;&lt;br&gt;&lt;br&gt;&lt;br&gt;&lt;br&gt;&lt;br&gt;&lt;br&gt;&lt;br&gt;&lt;br&gt;&lt;br&gt;&lt;br&gt;&lt;br&gt;&lt;br&gt;&lt;br&gt;&lt;br&gt;&lt;br&gt;&lt;br&gt;&lt;br&gt;&lt;br&gt;&lt;br&gt;&lt;br&gt;&lt;br&gt;&lt;br&gt;&lt;br&gt;&lt;br&gt;&lt;br&gt;&lt;br&gt;&lt;br&gt;&lt;br&gt;&lt;br&gt;&lt;br&gt;&lt;br&gt;&lt;br&gt;&lt;br&gt;&lt;br&gt;&lt;br&gt;&lt;br&gt;&lt;br&gt;&lt;br&gt;&lt;br&gt;&lt;br&gt;&lt;br&gt;&lt;br&gt;&lt;br&gt;&lt;br&gt;&lt;br&gt;&lt;br&gt;&lt;br&gt;&lt;br&gt;&lt;/font&gt;" style="rounded=0;whiteSpace=wrap;html=1;shadow=1;labelBackgroundColor=#6d8764;labelBorderColor=none;fillColor=#6d8764;fontColor=#ffffff;strokeColor=#3A5431;" vertex="1" parent="7">
                    <mxGeometry x="-489" y="-240" width="958" height="1999" as="geometry"/>
                </mxCell>
                <mxCell id="8" value="&lt;span style=&quot;&quot;&gt;&lt;font color=&quot;#000000&quot;&gt;&lt;b&gt;Env Config&lt;br&gt;&lt;/b&gt;&lt;/font&gt;&lt;/span&gt;&lt;div style=&quot;font-family: Consolas, &amp;quot;Courier New&amp;quot;, monospace; font-size: 14px; line-height: 19px;&quot;&gt;&lt;font color=&quot;#000000&quot;&gt;&lt;b&gt;apb_agent_config&lt;/b&gt;&lt;/font&gt;&lt;/div&gt;&lt;div style=&quot;font-family: Consolas, &amp;quot;Courier New&amp;quot;, monospace; font-size: 14px; line-height: 19px;&quot;&gt;&lt;div style=&quot;line-height: 19px;&quot;&gt;&lt;font color=&quot;#000000&quot;&gt;&lt;b&gt;rgu_agent_config&lt;/b&gt;&lt;/font&gt;&lt;/div&gt;&lt;div style=&quot;line-height: 19px;&quot;&gt;&lt;div style=&quot;line-height: 19px;&quot;&gt;&lt;br&gt;&lt;/div&gt;&lt;div style=&quot;line-height: 19px;&quot;&gt;&lt;br&gt;&lt;/div&gt;&lt;div style=&quot;line-height: 19px;&quot;&gt;&lt;div style=&quot;line-height: 19px;&quot;&gt;&lt;div style=&quot;line-height: 19px;&quot;&gt;&lt;div&gt;&lt;font color=&quot;#000000&quot;&gt;&lt;b&gt;&lt;br&gt;&lt;/b&gt;&lt;/font&gt;&lt;/div&gt;&lt;/div&gt;&lt;/div&gt;&lt;/div&gt;&lt;div style=&quot;line-height: 19px;&quot;&gt;&lt;font color=&quot;#000000&quot;&gt;&lt;b&gt;&lt;br&gt;&lt;/b&gt;&lt;/font&gt;&lt;/div&gt;&lt;div style=&quot;line-height: 19px;&quot;&gt;&lt;font color=&quot;#000000&quot;&gt;&lt;b&gt;&lt;br&gt;&lt;/b&gt;&lt;/font&gt;&lt;/div&gt;&lt;div style=&quot;line-height: 19px;&quot;&gt;&lt;font color=&quot;#000000&quot;&gt;&lt;b&gt;&lt;br&gt;&lt;/b&gt;&lt;/font&gt;&lt;/div&gt;&lt;div style=&quot;line-height: 19px;&quot;&gt;&lt;font color=&quot;#000000&quot;&gt;&lt;b&gt;&lt;br&gt;&lt;/b&gt;&lt;/font&gt;&lt;/div&gt;&lt;div style=&quot;line-height: 19px;&quot;&gt;&lt;font color=&quot;#000000&quot;&gt;&lt;b&gt;&lt;br&gt;&lt;/b&gt;&lt;/font&gt;&lt;/div&gt;&lt;div style=&quot;line-height: 19px;&quot;&gt;&lt;font color=&quot;#000000&quot;&gt;&lt;b&gt;&lt;br&gt;&lt;/b&gt;&lt;/font&gt;&lt;/div&gt;&lt;div style=&quot;line-height: 19px;&quot;&gt;&lt;font color=&quot;#000000&quot;&gt;&lt;b&gt;&lt;br&gt;&lt;/b&gt;&lt;/font&gt;&lt;/div&gt;&lt;div style=&quot;line-height: 19px;&quot;&gt;&lt;font color=&quot;#000000&quot;&gt;&lt;b&gt;&lt;br&gt;&lt;/b&gt;&lt;/font&gt;&lt;/div&gt;&lt;div style=&quot;line-height: 19px;&quot;&gt;&lt;font color=&quot;#000000&quot;&gt;&lt;b&gt;&lt;br&gt;&lt;/b&gt;&lt;/font&gt;&lt;/div&gt;&lt;div style=&quot;line-height: 19px;&quot;&gt;&lt;font color=&quot;#000000&quot;&gt;&lt;b&gt;&lt;br&gt;&lt;/b&gt;&lt;/font&gt;&lt;/div&gt;&lt;div style=&quot;line-height: 19px;&quot;&gt;&lt;font color=&quot;#000000&quot;&gt;&lt;b&gt;&lt;br&gt;&lt;/b&gt;&lt;/font&gt;&lt;/div&gt;&lt;div style=&quot;line-height: 19px;&quot;&gt;&lt;font color=&quot;#000000&quot;&gt;&lt;b&gt;&lt;br&gt;&lt;/b&gt;&lt;/font&gt;&lt;/div&gt;&lt;div style=&quot;line-height: 19px;&quot;&gt;&lt;div style=&quot;line-height: 19px;&quot;&gt;&lt;font color=&quot;#000000&quot;&gt;&lt;b&gt;&lt;br&gt;&lt;/b&gt;&lt;/font&gt;&lt;/div&gt;&lt;/div&gt;&lt;div style=&quot;line-height: 19px;&quot;&gt;&lt;font color=&quot;#000000&quot;&gt;&lt;b&gt;&lt;br&gt;&lt;/b&gt;&lt;/font&gt;&lt;/div&gt;&lt;div style=&quot;line-height: 19px;&quot;&gt;&lt;font color=&quot;#000000&quot;&gt;&lt;b&gt;&lt;br&gt;&lt;/b&gt;&lt;/font&gt;&lt;/div&gt;&lt;div style=&quot;line-height: 19px;&quot;&gt;&lt;font color=&quot;#000000&quot;&gt;&lt;b&gt;&lt;br&gt;&lt;/b&gt;&lt;/font&gt;&lt;/div&gt;&lt;div style=&quot;line-height: 19px;&quot;&gt;&lt;font color=&quot;#000000&quot;&gt;&lt;b&gt;&lt;br&gt;&lt;/b&gt;&lt;/font&gt;&lt;/div&gt;&lt;div style=&quot;line-height: 19px;&quot;&gt;&lt;font color=&quot;#000000&quot;&gt;&lt;b&gt;&lt;br&gt;&lt;/b&gt;&lt;/font&gt;&lt;/div&gt;&lt;div style=&quot;line-height: 19px;&quot;&gt;&lt;font color=&quot;#000000&quot;&gt;&lt;b&gt;&lt;br&gt;&lt;/b&gt;&lt;/font&gt;&lt;/div&gt;&lt;div style=&quot;line-height: 19px;&quot;&gt;&lt;font color=&quot;#000000&quot;&gt;&lt;b&gt;&lt;br&gt;&lt;/b&gt;&lt;/font&gt;&lt;/div&gt;&lt;div style=&quot;line-height: 19px;&quot;&gt;&lt;font color=&quot;#000000&quot;&gt;&lt;b&gt;&lt;br&gt;&lt;/b&gt;&lt;/font&gt;&lt;/div&gt;&lt;div style=&quot;line-height: 19px;&quot;&gt;&lt;font color=&quot;#000000&quot;&gt;&lt;b&gt;&lt;br&gt;&lt;/b&gt;&lt;/font&gt;&lt;/div&gt;&lt;div style=&quot;line-height: 19px;&quot;&gt;&lt;span style=&quot;color: #ebbbff;&quot;&gt;&lt;br&gt;&lt;/span&gt;&lt;/div&gt;&lt;/div&gt;&lt;/div&gt;" style="shape=process;whiteSpace=wrap;html=1;backgroundOutline=1;fontSize=27;shadow=1;labelBackgroundColor=#ffff88;labelBorderColor=none;fillColor=#ffff88;strokeColor=#36393d;" vertex="1" parent="7">
                    <mxGeometry width="410" height="610" as="geometry"/>
                </mxCell>
                <mxCell id="9" value="&lt;span style=&quot;&quot;&gt;rgu_reg_block&lt;br&gt;&lt;/span&gt;&lt;div style=&quot;font-family: Consolas, &amp;quot;Courier New&amp;quot;, monospace; font-size: 14px; line-height: 19px;&quot;&gt;&lt;span style=&quot;&quot;&gt;&lt;br&gt;&lt;/span&gt;&lt;/div&gt;&lt;div style=&quot;font-family: Consolas, &amp;quot;Courier New&amp;quot;, monospace; font-size: 14px; line-height: 19px;&quot;&gt;all registers&lt;/div&gt;&lt;div style=&quot;font-family: Consolas, &amp;quot;Courier New&amp;quot;, monospace; font-size: 14px; line-height: 19px;&quot;&gt;&lt;div style=&quot;line-height: 19px;&quot;&gt;&lt;div style=&quot;line-height: 19px;&quot;&gt;&lt;div style=&quot;line-height: 19px;&quot;&gt;&lt;div style=&quot;line-height: 19px;&quot;&gt;&lt;div style=&quot;line-height: 19px;&quot;&gt;&lt;div style=&quot;line-height: 19px;&quot;&gt;&lt;span style=&quot;&quot;&gt;&lt;br&gt;&lt;/span&gt;&lt;/div&gt;&lt;div style=&quot;line-height: 19px;&quot;&gt;&lt;span style=&quot;&quot;&gt;&lt;br&gt;&lt;/span&gt;&lt;/div&gt;&lt;div style=&quot;line-height: 19px;&quot;&gt;&lt;span style=&quot;&quot;&gt;&lt;br&gt;&lt;/span&gt;&lt;/div&gt;&lt;div style=&quot;line-height: 19px;&quot;&gt;&lt;span style=&quot;&quot;&gt;&lt;br&gt;&lt;/span&gt;&lt;/div&gt;&lt;div style=&quot;line-height: 19px;&quot;&gt;&lt;span style=&quot;&quot;&gt;&lt;br&gt;&lt;/span&gt;&lt;/div&gt;&lt;div style=&quot;line-height: 19px;&quot;&gt;&lt;span style=&quot;&quot;&gt;&lt;br&gt;&lt;/span&gt;&lt;/div&gt;&lt;div style=&quot;line-height: 19px;&quot;&gt;&lt;span style=&quot;&quot;&gt;&lt;br&gt;&lt;/span&gt;&lt;/div&gt;&lt;div style=&quot;line-height: 19px;&quot;&gt;&lt;span style=&quot;&quot;&gt;&lt;br&gt;&lt;/span&gt;&lt;/div&gt;&lt;div style=&quot;line-height: 19px;&quot;&gt;&lt;span style=&quot;&quot;&gt;&lt;br&gt;&lt;/span&gt;&lt;/div&gt;&lt;div style=&quot;line-height: 19px;&quot;&gt;&lt;span style=&quot;&quot;&gt;&lt;br&gt;&lt;/span&gt;&lt;/div&gt;&lt;/div&gt;&lt;/div&gt;&lt;/div&gt;&lt;/div&gt;&lt;/div&gt;&lt;/div&gt;" style="rounded=1;whiteSpace=wrap;html=1;labelBackgroundColor=#fa6800;fontSize=27;shadow=1;labelBorderColor=none;fillColor=#fa6800;strokeColor=#C73500;fontStyle=1;fontColor=#FFFFFF;" vertex="1" parent="7">
                    <mxGeometry x="60" y="175" width="285" height="415" as="geometry"/>
                </mxCell>
                <mxCell id="10" value="Adapter" style="shape=ext;double=1;rounded=0;whiteSpace=wrap;html=1;shadow=1;labelBackgroundColor=#d80073;labelBorderColor=none;strokeColor=#A50040;fontSize=27;fontColor=#ffffff;strokeWidth=1;fillColor=#d80073;" vertex="1" parent="7">
                    <mxGeometry x="95" y="420" width="220" height="130" as="geometry"/>
                </mxCell>
                <mxCell id="26" value="" style="endArrow=classic;html=1;rounded=0;labelBackgroundColor=#18141D;exitX=0;exitY=0.75;exitDx=0;exitDy=0;entryX=1;entryY=0.75;entryDx=0;entryDy=0;startArrow=classic;startFill=1;shadow=1;strokeWidth=3;" edge="1" parent="7">
                    <mxGeometry width="50" height="50" relative="1" as="geometry">
                        <mxPoint x="95" y="484" as="sourcePoint"/>
                        <mxPoint x="-70" y="484" as="targetPoint"/>
                    </mxGeometry>
                </mxCell>
                <mxCell id="11" value="APB Agent&lt;br&gt;&lt;br&gt;&lt;br&gt;&lt;br&gt;&lt;br&gt;&lt;br&gt;&lt;br&gt;" style="shape=ext;double=1;rounded=0;whiteSpace=wrap;html=1;shadow=1;labelBackgroundColor=#76608a;labelBorderColor=none;strokeColor=#432D57;fontSize=27;fontColor=#ffffff;strokeWidth=1;fillColor=#76608a;" vertex="1" parent="1">
                    <mxGeometry x="459" y="1035" width="690" height="310" as="geometry"/>
                </mxCell>
                <mxCell id="12" value="" style="edgeStyle=orthogonalEdgeStyle;rounded=0;html=1;labelBackgroundColor=#18141D;startArrow=classic;startFill=1;endArrow=none;endFill=0;endSize=24;shadow=1;strokeWidth=3;" edge="1" parent="1" source="13">
                    <mxGeometry relative="1" as="geometry">
                        <mxPoint x="668.0000000000005" y="1034" as="targetPoint"/>
                        <Array as="points">
                            <mxPoint x="669" y="1034"/>
                        </Array>
                    </mxGeometry>
                </mxCell>
                <mxCell id="13" value="Predictor" style="shape=ext;double=1;rounded=0;whiteSpace=wrap;html=1;shadow=1;labelBackgroundColor=#6a00ff;labelBorderColor=none;strokeColor=#3700CC;fontSize=27;fontColor=#ffffff;strokeWidth=1;fillColor=#6a00ff;" vertex="1" parent="1">
                    <mxGeometry x="559" y="734" width="220" height="130" as="geometry"/>
                </mxCell>
                <mxCell id="14" value="APB Agent Config" style="label;whiteSpace=wrap;html=1;image=img/clipart/Gear_128x128.png;labelBackgroundColor=none;fillStyle=auto;fillColor=#60a917;strokeColor=#2D7600;fontColor=#ffffff;shadow=1;" vertex="1" parent="1">
                    <mxGeometry x="1013" y="1060" width="100" height="60" as="geometry"/>
                </mxCell>
                <mxCell id="15" value="" style="edgeStyle=orthogonalEdgeStyle;rounded=0;html=1;labelBackgroundColor=#18141D;startArrow=diamond;startFill=1;endArrow=diamond;endFill=1;endSize=15;targetPerimeterSpacing=0;startSize=15;shadow=1;strokeWidth=3;" edge="1" parent="1" source="16">
                    <mxGeometry relative="1" as="geometry">
                        <mxPoint x="669" y="1107" as="sourcePoint"/>
                        <mxPoint x="669" y="1027" as="targetPoint"/>
                    </mxGeometry>
                </mxCell>
                <mxCell id="16" value="APB Monitor" style="rounded=1;whiteSpace=wrap;html=1;labelBackgroundColor=#b0e3e6;fillColor=#b0e3e6;strokeColor=#0e8088;fontColor=#000000;fontStyle=1;shadow=1;" vertex="1" parent="1">
                    <mxGeometry x="869" y="1140" width="120" height="60" as="geometry"/>
                </mxCell>
                <mxCell id="17" value="APB Driver" style="rounded=1;whiteSpace=wrap;html=1;labelBackgroundColor=#fad7ac;fillColor=#fad7ac;strokeColor=#b46504;fontStyle=1;fontColor=#000000;shadow=1;" vertex="1" parent="1">
                    <mxGeometry x="869" y="1250" width="120" height="60" as="geometry"/>
                </mxCell>
                <mxCell id="18" value="APB Sequencer" style="rounded=1;whiteSpace=wrap;html=1;labelBackgroundColor=#fad7ac;fillColor=#fad7ac;strokeColor=#b46504;fontStyle=1;fontColor=#000000;shadow=1;" vertex="1" parent="1">
                    <mxGeometry x="489" y="1250" width="120" height="60" as="geometry"/>
                </mxCell>
                <mxCell id="19" value="" style="edgeStyle=orthogonalEdgeStyle;rounded=0;html=1;labelBackgroundColor=#18141D;startArrow=box;startFill=1;endArrow=classic;endFill=1;startSize=10;endSize=15;sourcePerimeterSpacing=24;targetPerimeterSpacing=0;exitX=1;exitY=0.5;exitDx=0;exitDy=0;entryX=0;entryY=0.5;entryDx=0;entryDy=0;shadow=1;strokeWidth=3;" edge="1" parent="1" target="17">
                    <mxGeometry relative="1" as="geometry">
                        <mxPoint x="602" y="1280" as="sourcePoint"/>
                        <mxPoint x="865" y="1280" as="targetPoint"/>
                    </mxGeometry>
                </mxCell>
                <mxCell id="20" value="apb_monitor_bfm" style="shape=doubleArrow;whiteSpace=wrap;html=1;arrowWidth=0.5333302815755209;arrowSize=0.07017551890590734;shadow=1;labelBackgroundColor=#76608a;labelBorderColor=none;fillColor=#76608a;fontColor=#ffffff;strokeColor=#432D57;fontSize=15;" vertex="1" parent="1">
                    <mxGeometry x="989" y="1155" width="361" height="30" as="geometry"/>
                </mxCell>
                <mxCell id="21" value="apb_driver_bfm" style="shape=doubleArrow;whiteSpace=wrap;html=1;arrowWidth=0.5333302815755209;arrowSize=0.07017551890590734;shadow=1;labelBackgroundColor=#76608a;labelBorderColor=none;fillColor=#76608a;fontColor=#ffffff;strokeColor=#432D57;fontSize=15;" vertex="1" parent="1">
                    <mxGeometry x="989" y="1265" width="361" height="30" as="geometry"/>
                </mxCell>
                <mxCell id="23" value="" style="endArrow=classic;html=1;rounded=0;labelBackgroundColor=#18141D;startSize=15;endSize=15;sourcePerimeterSpacing=24;targetPerimeterSpacing=0;entryX=1;entryY=0.5;entryDx=0;entryDy=0;shadow=1;strokeWidth=3;" edge="1" parent="1">
                    <mxGeometry width="50" height="50" relative="1" as="geometry">
                        <mxPoint x="671" y="1170" as="sourcePoint"/>
                        <mxPoint x="609" y="1170" as="targetPoint"/>
                    </mxGeometry>
                </mxCell>
                <mxCell id="24" value="APB Coverage Monitor" style="rounded=1;whiteSpace=wrap;html=1;labelBackgroundColor=#b0e3e6;fillColor=#b0e3e6;strokeColor=#0e8088;fontColor=#000000;fontStyle=1;shadow=1;" vertex="1" parent="1">
                    <mxGeometry x="489" y="1140" width="120" height="60" as="geometry"/>
                </mxCell>
                <mxCell id="27" value="" style="endArrow=classic;html=1;rounded=0;labelBackgroundColor=#18141D;startSize=10;endSize=5;sourcePerimeterSpacing=24;targetPerimeterSpacing=0;exitX=0;exitY=0.5;exitDx=0;exitDy=0;entryX=0;entryY=0.5;entryDx=0;entryDy=0;edgeStyle=orthogonalEdgeStyle;startArrow=box;startFill=1;shadow=1;strokeWidth=3;" edge="1" parent="1">
                    <mxGeometry width="50" height="50" relative="1" as="geometry">
                        <mxPoint x="494" y="1277.5" as="sourcePoint"/>
                        <mxPoint x="908" y="690" as="targetPoint"/>
                        <Array as="points">
                            <mxPoint x="420" y="1277.5"/>
                            <mxPoint x="420" y="690.5"/>
                        </Array>
                    </mxGeometry>
                </mxCell>
            </root>
        </mxGraphModel>
    </diagram>
</mxfile>